<?xml version="1.0" standalone="no"?>
<!DOCTYPE svg PUBLIC "-//W3C//DTD SVG 1.1//EN" "http://www.w3.org/Graphics/SVG/1.1/DTD/svg11.dtd" >
<svg xmlns="http://www.w3.org/2000/svg">
<metadata>
This is a custom SVG font generated by IcoMoon.
<iconset grid="7"></iconset>
</metadata>
<defs>
<font id="icomoon" horiz-adv-x="224" >
<font-face units-per-em="224" ascent="192" descent="-32" />
<missing-glyph horiz-adv-x="224" />
<glyph unicode="&#x6d;" d="M 266.327,153.266L 144.44,54.114L 132.043,69.334L 253.93,168.494zM 154.246,52.712L 34.913,154.982L 47.703,169.887L 167.028,67.626zM 273.28,24.332C 273.28,0.839, 254.222-18.22, 230.715-18.22L 60.484-18.22 C 36.978-18.22, 17.92,0.839, 17.92,24.332L 17.92,135.669 C 17.92,159.161, 36.978,178.22, 60.484,178.22l 170.232,0.00 
		C 254.222,178.22, 273.28,159.161, 273.28,135.669L 273.28,24.332 z M 253.64,135.646C 253.64,148.32, 243.381,158.57, 230.715,158.57L 60.484,158.57 C 47.819,158.57, 37.56,148.32, 37.56,135.646l0.00-111.314 
		C 37.56,11.68, 47.819,1.43, 60.484,1.43l 170.232,0.00 C 243.381,1.43, 253.64,11.68, 253.64,24.332L 253.64,135.646 z" horiz-adv-x="290.5" data-tags="icon-mail" />
<glyph unicode="&#x69;" d="M 120.816,41.088l0.00,64.00 l-32.00,0.00 l0.00-16.00 l 16.00,0.00 l0.00-48.00 l-16.00,0.00 l0.00-16.00 l 48.00,0.00 l0.00,16.00 L 120.816,41.088 z M 120.864,119.136l-16.00,0.00 l0.00,16.00 l 16.00,0.00 L 120.864,119.136 zM 112.864-33.712C 50.64-33.712,0.00,16.912,0.00,79.136C0.00,141.376, 50.64,192.00, 112.864,192.00s 112.864-50.624, 112.864-112.864
		C 225.712,16.912, 175.072-33.712, 112.864-33.712z M 112.864,177.04c-54.00,0.00-97.904-43.92-97.904-97.904c0.00-54.00, 43.904-97.904, 97.904-97.904
		s 97.92,43.904, 97.92,97.904C 210.784,133.12, 166.864,177.04, 112.864,177.04z" data-tags="icon-info" />
<glyph unicode="&#x76;" d="M 27.92,89.616c0.00,0.00, 58.048-59.952, 59.664-59.952
	C 87.584,53.648, 212.448,192.00, 212.448,192.00l 24.992-6.512c0.00,0.00-133.488-184.56-133.488-218.464C 72.912-32.976,0.00,70.48,0.00,70.48L 27.92,89.616z" data-tags="icon-check" />
<glyph unicode="&#x5f;" d="M 72.172,192.00l0.00-22.40 l 179.20,0.00 L 251.373,192.00 L 72.172,192.00 z M 72.172,80.00l 179.20,0.00 L 251.373,102.40 l-179.20,0.00 L 72.172,80.00 z M 72.172-9.60l 179.20,0.00 L 251.373,12.80 l-179.20,0.00 L 72.172-9.60 z M0.00-39.571l 44.80,0.00 l0.00,44.80 L0.00,5.228 L0.00-39.571 z M0.00,50.029l 44.80,0.00 l0.00,44.80 L0.00,94.829 
		L0.00,50.029 z M0.00,139.629l 44.80,0.00 l0.00,44.80 L0.00,184.428 L0.00,139.629 z" horiz-adv-x="246" data-tags="icon-list" />
<glyph unicode="&#x26;" d="M 108.40,140.544L 124.40,140.544L 124.40,28.544L 108.40,28.544zM 60.40,92.544L 172.40,92.544L 172.40,76.544L 60.40,76.544zM 112.864-33.712C 50.64-33.712,0.00,16.896,0.00,79.136C0.00,141.36, 50.64,192.00, 112.864,192.00s 112.864-50.64, 112.864-112.864
		C 225.712,16.896, 175.072-33.712, 112.864-33.712z M 112.864,177.04c-54.00,0.00-97.92-43.92-97.92-97.904c0.00-54.00, 43.92-97.92, 97.92-97.92
		s 97.92,43.92, 97.92,97.92C 210.784,133.12, 166.864,177.04, 112.864,177.04z" data-tags="icon-add" />
<glyph unicode="&#x58;" d="M 79.546,116.135L 150.067,45.581L 140.061,35.575L 69.536,106.125zM 140.051,116.125L 150.067,106.115L 79.526,35.575L 69.523,45.581zM 111.401-21.85c-57.748,0.00-104.736,46.989-104.736,104.764C 6.666,140.678, 53.654,187.673, 111.401,187.673c 57.776,0.00, 104.764-46.989, 104.764-104.736
			C 216.186,25.159, 169.178-21.85, 111.401-21.85z M 111.401,173.514C 61.456,173.514, 20.82,132.883, 20.82,82.934s 40.636-90.611, 90.585-90.611s 90.611,40.663, 90.611,90.611
			S 161.36,173.514, 111.401,173.514z" data-tags="icon-x" />
<glyph unicode="&#x50;" d="M 176.00,144.00L 176.00,192.00 L 48.00,192.00 l0.00-48.00 L0.00,144.00 l0.00-112.00 l 48.00,0.00 l0.00-16.00 l0.00-48.00 l 128.00,0.00 l0.00,64.00 l 48.00,0.00 L 224.00,144.00 L 176.00,144.00 z M 64.00,176.00l 96.00,0.00 l0.00-32.00 L 64.00,144.00 L 64.00,176.00 z M 208.00,48.00l-32.00,0.00 L 176.00,96.00 l-16.00,0.00 l0.00-112.00 L 64.00-16.00 L 64.00,96.00 L 48.00,96.00 l0.00-48.00 L 16.00,48.00 L 16.00,128.00 l 192.00,0.00 L 208.00,48.00 z M 218.448,130.432
			l-8.976,0.00 L 209.472,139.376 l 8.976,0.00 L 218.448,130.432 zM 80.00,96.00L 144.00,96.00L 144.00,80.00L 80.00,80.00zM 80.00,64.00L 144.00,64.00L 144.00,48.00L 80.00,48.00zM 80.00,32.00L 144.00,32.00L 144.00,16.00L 80.00,16.00z" data-tags="icon-print" />
<glyph unicode="&#x42;" d="M 52.071,73.228L 52.071,75.158 l 92.305,64.65l0.00-27.50 l-55.535-38.597l 55.535-38.597l0.00-27.517 L 52.071,73.228zM 120.305-48.542C 54.001-48.542,0.00,5.391,0.00,71.746C0.00,138.033, 54.001,192.00, 120.305,192.00c 66.321,0.00, 120.254-53.967, 120.254-120.254
	C 240.559,5.391, 186.626-48.542, 120.305-48.542z M 120.305,176.079c-57.568,0.00-104.367-46.833-104.367-104.35c0.00-57.568, 46.799-104.367, 104.367-104.367
	c 57.551,0.00, 104.35,46.799, 104.35,104.367C 224.655,129.245, 177.856,176.079, 120.305,176.079z" data-tags="icon-back" />
<glyph unicode="&#x4f;" d="M 120.305-48.542C 54.001-48.542,0.00,5.408,0.00,71.746C0.00,138.033, 54.001,192.00, 120.305,192.00c 66.304,0.00, 120.254-53.967, 120.254-120.254
	C 240.576,5.408, 186.609-48.542, 120.305-48.542z M 120.305,176.079c-57.568,0.00-104.367-46.833-104.367-104.35c0.00-57.568, 46.799-104.367, 104.367-104.367
	c 57.551,0.00, 104.35,46.799, 104.35,104.367C 224.655,129.245, 177.856,176.079, 120.305,176.079z" data-tags="icon-back" />
<glyph unicode="&#x23;" d="M0.00,192.00l0.00-224.00 l 224.00,0.00 L 224.00,192.00 L0.00,192.00 z M 210.00-18.00L 14.00-18.00 L 14.00,178.00 l 196.00,0.00 L 210.00-18.00 z" data-tags="checkbox-unchecked, unchecked, square" />
<glyph unicode="&#x4c;" d="M 102.055-29.832L 108.757-24.004L 18.381,79.946L 108.757,184.008L 102.055,189.832L 6.612,79.942 	z" data-tags="thin-right" />
<glyph unicode="&#x55;" d="M 1.613,44.59L 7.441,37.888L 111.391,128.263L 215.452,37.888L 221.276,44.59L 111.386,140.032 	z" data-tags="thin-right" />
<glyph unicode="&#x44;" d="M 1.613,115.41L 7.441,122.112L 111.391,31.737L 215.452,122.112L 221.276,115.41L 111.386,19.968 	z" data-tags="thin-right" />
<glyph unicode="&#x52;" d="M 111.874-29.832L 105.172-24.004L 195.548,79.946L 105.172,184.008L 111.874,189.832L 207.316,79.942 	z" data-tags="thin-right" />
<glyph unicode="&#x3d;" d="M0.00,192.00L 56.00,192.00L 56.00,136.00L0.00,136.00zM 84.00,178.00L 224.00,178.00L 224.00,150.00L 84.00,150.00zM0.00,108.00L 56.00,108.00L 56.00,52.00L0.00,52.00zM 84.00,94.00L 224.00,94.00L 224.00,66.00L 84.00,66.00zM0.00,24.00L 56.00,24.00L 56.00-32.00L0.00-32.00zM 84.00,10.00L 224.00,10.00L 224.00-18.00L 84.00-18.00z" data-tags="list, bullet, ul, todo, menu" />
<glyph unicode="&#x3a;" d="M 49.00,24.00L 7.00,24.00 c-3.871,0.00-7.00-3.129-7.00-7.00l0.00-42.00 c0.00-3.871, 3.129-7.00, 7.00-7.00l 42.00,0.00 c 3.871,0.00, 7.00,3.129, 7.00,7.00l0.00,42.00 
			C 56.00,20.871, 52.871,24.00, 49.00,24.00z M 42.00-11.00c0.00-3.871-3.129-7.00-7.00-7.00L 21.00-18.00 c-3.871,0.00-7.00,3.129-7.00,7.00l0.00,14.00 c0.00,3.871, 3.129,7.00, 7.00,7.00l 14.00,0.00 c 3.871,0.00, 7.00-3.129, 7.00-7.00L 42.00-11.00 z
			 M 217.00,10.00L 91.00,10.00 c-3.871,0.00-7.00-3.129-7.00-7.00l0.00-14.00 c0.00-3.871, 3.129-7.00, 7.00-7.00l 126.00,0.00 c 3.871,0.00, 7.00,3.129, 7.00,7.00l0.00,14.00 C 224.00,6.871, 220.871,10.00, 217.00,10.00z M 217.00,94.00L 91.00,94.00 
			c-3.871,0.00-7.00-3.129-7.00-7.00l0.00-14.00 c0.00-3.871, 3.129-7.00, 7.00-7.00l 126.00,0.00 c 3.871,0.00, 7.00,3.129, 7.00,7.00l0.00,14.00 C 224.00,90.871, 220.871,94.00, 217.00,94.00z M 49.00,192.00L 7.00,192.00 C 3.129,192.00,0.00,188.871,0.00,185.00l0.00-42.00 
			c0.00-3.871, 3.129-7.00, 7.00-7.00l 42.00,0.00 c 3.871,0.00, 7.00,10.129, 7.00,14.00L 56.00,185.00 C 56.00,188.871, 52.871,192.00, 49.00,192.00z M 42.00,157.00c0.00-3.871-3.129-7.00-7.00-7.00L 21.00,150.00 C 17.129,150.00, 14.00,153.129, 14.00,157.00L 14.00,171.00 
			c0.00,3.871, 3.129,7.00, 7.00,7.00l 14.00,0.00 c 3.871,0.00, 7.00-3.129, 7.00-7.00L 42.00,157.00 z M 49.00,108.00L 7.00,108.00 c-3.871,0.00-7.00-3.129-7.00-7.00l0.00-42.00 c0.00-3.871, 3.129-7.00, 7.00-7.00l 42.00,0.00 c 3.871,0.00, 7.00,3.129, 7.00,7.00l0.00,42.00 
			C 56.00,104.871, 52.871,108.00, 49.00,108.00z M 42.00,73.00c0.00-3.871-3.129-7.00-7.00-7.00L 21.00,66.00 c-3.871,0.00-7.00,3.129-7.00,7.00l0.00,14.00 c0.00,3.871, 3.129,7.00, 7.00,7.00l 14.00,0.00 c 3.871,0.00, 7.00-3.129, 7.00-7.00L 42.00,73.00 z
			 M 217.00,178.00L 91.00,178.00 c-3.871,0.00-7.00-3.129-7.00-7.00l0.00-14.00 c0.00-3.871, 3.129-7.00, 7.00-7.00l 126.00,0.00 c 3.871,0.00, 7.00,3.129, 7.00,7.00L 224.00,171.00 C 224.00,174.871, 220.871,178.00, 217.00,178.00z" data-tags="list" />
<glyph unicode="&#x4d;" d="M 208.00,4.00l0.00,96.00 q-4.00-4.50 -8.625-8.25q-33.50-25.75 -53.25-42.25q-6.375-5.375 -10.375-8.375t-10.813-6.063t-12.813-3.063l-0.125,0.00 l-0.125,0.00 q-6.00,0.00 -12.813,3.063t-10.813,6.063t-10.375,8.375q-19.75,16.50 -53.25,42.25q-4.625,3.75 -8.625,8.25l0.00-96.00 q0.00-1.625 1.188-2.813t 2.813-1.188l 184.00,0.00 q 1.625,0.00 2.813,1.188t 1.188,2.813zM 208.00,135.375l0.00,1.375 l0.00,1.688 t-0.063,1.625 t-0.375,1.563t-0.688,1.125t-1.125,0.938t-1.75,0.313l-184.00,0.00 q-1.625,0.00 -2.813-1.188t-1.188-2.813q0.00-21.00 18.375-35.50q 24.125-19.00 50.125-39.625q 0.75-0.625 4.375-3.688t 5.75-4.688t 5.563-3.938t 6.313-3.438t 5.375-1.125l 0.125,0.00 l 0.125,0.00 q 2.50,0.00 5.375,1.125t 6.313,3.438t 5.563,3.938t 5.75,4.688t 4.375,3.688q 26.00,20.625 50.125,39.625q 6.75,5.375 12.563,14.438t 5.813,16.438z M 224.00,140.00l0.00-136.00 q0.00-8.25 -5.875-14.125t-14.125-5.875l-184.00,0.00 q-8.25,0.00 -14.125,5.875t-5.875,14.125l0.00,136.00 q0.00,8.25 5.875,14.125t 14.125,5.875l 184.00,0.00 q 8.25,0.00 14.125-5.875t 5.875-14.125z" data-tags="envelope, letter, email, mail, contact" />
<glyph unicode="&#x41;" d="M 184.19,63.051c-2.986,2.941-9.606,4.499-19.681,4.631c-6.82,0.075-15.029-0.525-23.662-1.734
		c-3.866,2.231-7.851,4.658-10.979,7.581c-8.414,7.857-15.437,18.763-19.813,30.755c 0.285,1.12, 0.528,2.104, 0.754,3.109
		c0.00,0.00, 4.739,26.919, 3.485,36.021c-0.173,1.248-0.279,1.61-0.614,2.58l-0.412,1.057c-1.29,2.973-3.817,6.124-7.78,5.952
		l-2.324,0.074l-0.064,0.001c-4.419,0.00-8.02-2.26-8.966-5.638c-2.874-10.595, 0.091-26.445, 5.465-46.974l-1.376-3.344
		c-3.847-9.379-8.669-18.826-12.923-27.16l-0.553-1.083c-4.476-8.758-8.537-16.193-12.218-22.492l-3.801-2.01
		c-0.277-0.146-6.791-3.591-8.319-4.516c-12.962-7.74-21.552-16.524-22.977-23.497c-0.453-2.225-0.116-5.072, 2.191-6.391
		l 3.676-1.85c 1.595-0.799, 3.276-1.204, 4.999-1.204c 9.232,0.00, 19.95,11.50, 34.715,37.268
		c 17.047,5.549, 36.456,10.162, 53.466,12.707c 12.963-7.299, 28.906-12.369, 38.969-12.369c 1.787,0.00, 3.328,0.17, 4.579,0.502
		c 1.93,0.511, 3.556,1.611, 4.548,3.104c 1.953,2.938, 2.348,6.985, 1.818,11.129C 186.235,60.492, 185.253,62.013, 184.19,63.051z
		 M 46.298,13.927c 1.683,4.603, 8.348,13.703, 18.201,21.778c 0.619,0.502, 2.146,1.932, 3.542,3.26
		C 57.737,22.531, 50.837,15.982, 46.298,13.927z M 104.657,148.319c 2.968,0.00, 4.656-7.48, 4.796-14.493
		c 0.14-7.013-1.50-11.935-3.535-15.577c-1.685,5.392-2.499,13.891-2.499,19.448C 103.419,137.697, 103.296,148.319, 104.657,148.319z
		 M 87.249,52.548c 2.067,3.70, 4.218,7.603, 6.416,11.742c 5.358,10.132, 8.741,18.059, 11.261,24.576
		c 5.012-9.118, 11.253-16.87, 18.591-23.081c 0.915-0.775, 1.885-1.554, 2.904-2.33C 111.499,60.503, 98.603,56.913, 87.249,52.548z
		 M 181.323,53.389c-0.909-0.568-3.512-0.897-5.186-0.897c-5.404,0.00-12.091,2.471-21.465,6.489
		c 3.602,0.266, 6.904,0.402, 9.866,0.402c 5.421,0.00, 7.026,0.024, 12.327-1.328S 182.231,53.957, 181.323,53.389zM 197.626,148.375l-31.252,31.251C 159.569,186.431, 146.125,192.00, 136.50,192.00L 31.50,192.00 C 21.875,192.00, 14.00,184.125, 14.00,174.50l0.00-189.00 c0.00-9.625, 7.875-17.50, 17.50-17.50l 161.00,0.00 
		c 9.625,0.00, 17.50,7.875, 17.50,17.50L 210.00,118.50 C 210.00,128.125, 204.431,141.569, 197.626,148.375z M 187.726,138.475c 0.685-0.685, 1.367-1.526, 2.03-2.475L 154.00,136.00 L 154.00,171.756 
		c 0.949-0.663, 1.79-1.345, 2.475-2.03L 187.726,138.475z M 196.00-14.50c0.00-1.897-1.603-3.50-3.50-3.50L 31.50-18.00 c-1.897,0.00-3.50,1.603-3.50,3.50L 28.00,174.50 
		c0.00,1.897, 1.603,3.50, 3.50,3.50l 105.00,0.00 c 1.057,0.00, 2.243-0.133, 3.50-0.373L 140.00,122.00 l 55.627,0.00 c 0.239-1.257, 0.373-2.443, 0.373-3.50L 196.00-14.50 z" data-tags="file-pdf, file, format, pdf" />
<glyph unicode="&#x53;" d="M 196.00-32.00l-168.00,0.00 q-11.594,0.00 -19.797,8.203t-8.203,19.797l0.00,21.00 q0.00,5.688 4.047,9.844t 9.844,4.156t 9.953-4.156t 4.156-9.844l0.00-7.00 q0.00-5.906 4.047-9.953t 9.953-4.047l 140.00,0.00 q 5.688,0.00 9.844,4.047t 4.156,9.953l0.00,7.00 q0.00,5.688 4.047,9.844t 9.844,4.156t 9.953-4.156t 4.156-9.844l0.00-21.00 q0.00-11.594 -8.203-19.797t-19.797-8.203zM 119.219,27.062q-3.063-3.063 -7.219-3.063t-7.219,3.063l-74.594,75.469
q-2.625,2.844 -1.859,4.156t 4.047,1.313l 51.625,0.00 l0.00,70.00 q0.00,5.906 4.047,9.953t 9.953,4.047l 28.00,0.00 q 5.906,0.00 9.953-4.047t 4.047-9.953l0.00-70.00 l 51.406,0.00 q 3.281,0.00 4.156-1.313t-1.75-4.156z" data-tags="download" />
<glyph unicode="&#x73;" d="M 112.00,66.00L 168.00,122.00L 126.00,122.00L 126.00,178.00L 98.00,178.00L 98.00,122.00L 56.00,122.00 	zM 162.909,88.909L 147.216,73.216L 204.108,52.00L 112.00,17.652L 19.892,52.00L 76.784,73.216L 61.091,88.909L0.00,66.00L0.00,10.00L 112.00-32.00L 224.00,10.00L 224.00,66.00 	z" data-tags="download, store, save, arrow" />
<glyph unicode="&#x51;" d="M 222.005-10.671c 2.667-2.667, 2.667-6.993,0.00-9.667l-9.667-9.667
	c-2.674-2.667-7.00-2.667-9.667,0.00l-67.676,67.676c-0.735,0.735-1.225,1.603-1.554,2.527C 119.56,30.055, 102.515,24.00, 84.00,24.00
	C 37.611,24.00,0.00,61.611,0.00,108.00C0.00,154.389, 37.611,192.00, 84.00,192.00c 46.389,0.00, 84.00-37.611, 84.00-84.00c0.00-18.515-6.055-35.56-16.198-49.441
	c 0.924-0.329, 1.792-0.812, 2.527-1.554L 222.005-10.671z M 84.00,164.00c-30.926,0.00-56.00-25.074-56.00-56.00c0.00-30.926, 25.074-56.00, 56.00-56.00s 56.00,25.074, 56.00,56.00
	C 140.00,138.926, 114.926,164.00, 84.00,164.00z" data-tags="search, zoom, magnifier, magnifying glass" />
<glyph unicode="&#x20;" horiz-adv-x="112" />
<glyph class="hidden" unicode="&#xf000;" d="M0,192L 224 -32L0 -32 z" horiz-adv-x="0" />
</font>
</defs>
</svg>
